<svg xmlns="http://www.w3.org/2000/svg" xmlns:xlink="http://www.w3.org/1999/xlink" version="1.1" x="0px" y="0px" viewBox="0 0 100 125" enable-background="new 0 0 100 100" xml:space="preserve"><rect x="19.915" y="76.114" transform="matrix(0.6828 -0.7306 0.7306 0.6828 -48.8562 41.1836)" width="6.166" height="1.48"/><rect x="25.368" y="62.584" transform="matrix(0.7071 -0.7071 0.7071 0.7071 -34.0349 44.4817)" width="22.615" height="1.48"/><rect x="52.025" y="35.956" transform="matrix(0.7071 -0.7071 0.7071 0.7071 -7.4067 55.5115)" width="22.558" height="1.48"/><rect x="73.606" y="22.432" transform="matrix(0.7071 -0.7071 0.7071 0.7071 6.1173 61.1126)" width="6.445" height="1.48"/><rect x="22.406" y="19.96" transform="matrix(0.7071 -0.7071 0.7071 0.7071 -9.5875 23.1473)" width="1.48" height="6.371"/><rect x="35.936" y="25.368" transform="matrix(0.7071 -0.7071 0.7071 0.7071 -15.1918 36.6753)" width="1.48" height="22.615"/><rect x="62.564" y="52.025" transform="matrix(0.7071 -0.7071 0.7071 0.7071 -26.2212 63.3029)" width="1.48" height="22.558"/><rect x="76.088" y="73.605" transform="matrix(0.7071 -0.7071 0.7071 0.7071 -31.8231 76.8323)" width="1.48" height="6.445"/><path d="M54.378,50c0-2.414-1.958-4.379-4.378-4.379c-0.004,0-0.008,0.001-0.012,0.001l-0.001,0  c-2.41,0.004-4.365,1.958-4.365,4.378c0,2.429,1.962,4.379,4.378,4.379C52.518,54.379,54.378,52.342,54.378,50z M47.102,50  c0-1.599,1.303-2.894,2.891-2.898c1.58-0.002,2.906,1.264,2.906,2.898c0,1.594-1.265,2.887-2.898,2.888  C48.348,52.888,47.102,51.621,47.102,50z"/><path d="M47.584,11.989c1.376,1.214,3.451,1.218,4.832-0.001C54.928,9.771,53.349,5.6,50,5.6C46.64,5.6,45.078,9.776,47.584,11.989z   M50,7.08c1.996,0,2.927,2.484,1.437,3.799c-0.793,0.7-2.082,0.699-2.874,0.001C47.072,9.563,48.005,7.08,50,7.08z"/><path d="M50,87.099c-3.361,0-4.921,4.174-2.417,6.388c1.381,1.218,3.456,1.216,4.833-0.001C54.928,91.269,53.349,87.099,50,87.099z   M51.437,92.377c-0.792,0.7-2.081,0.699-2.873,0.001c-1.491-1.317-0.559-3.799,1.437-3.799  C51.997,88.579,52.927,91.063,51.437,92.377z"/><path d="M90.75,46.349c-2.01,0-3.651,1.627-3.651,3.651c0,2.026,1.642,3.651,3.651,3.651c2.013,0,3.65-1.638,3.65-3.651  S92.762,46.349,90.75,46.349z M90.75,52.171c-1.196,0-2.171-0.967-2.171-2.171c0-1.206,0.976-2.171,2.171-2.171  c1.197,0,2.17,0.974,2.17,2.171S91.946,52.171,90.75,52.171z"/><path d="M9.25,53.651c2.013,0,3.651-1.638,3.651-3.651s-1.638-3.651-3.651-3.651c-2.01,0-3.65,1.627-3.65,3.651  C5.6,52.03,7.247,53.651,9.25,53.651z M9.25,47.829c1.197,0,2.171,0.974,2.171,2.171s-0.974,2.171-2.171,2.171  c-1.196,0-2.17-0.967-2.17-2.171C7.08,48.794,8.056,47.829,9.25,47.829z"/><rect x="56.307" y="9.547" transform="matrix(0.2597 -0.9657 0.9657 0.2597 33.904 64.8027)" width="5.825" height="1.48"/><path d="M60.314,48.168l1.464,0.215c0.784-5.331,5.38-9.286,10.78-9.286c5.597,0,9.977,4.133,10.766,9.176l1.462-0.228  c-0.893-5.722-5.86-10.427-12.228-10.427C66.38,37.617,61.197,42.159,60.314,48.168z"/><path d="M84.786,51.956l-1.462-0.228c-0.788,5.041-5.167,9.176-10.766,9.176c-5.297,0-9.794-3.801-10.725-8.932l-1.456,0.264  c1.059,5.835,6.169,10.148,12.181,10.148C78.927,62.383,83.893,57.676,84.786,51.956z"/><rect x="40.04" y="7.375" transform="matrix(0.9657 -0.2596 0.2596 0.9657 -1.2735 10.9375)" width="1.48" height="5.832"/><rect x="37.873" y="88.965" transform="matrix(0.2588 -0.9659 0.9659 0.2588 -56.4202 105.8825)" width="5.823" height="1.48"/><rect x="58.476" y="86.801" transform="matrix(0.9659 -0.259 0.259 0.9659 -21.2155 18.3997)" width="1.48" height="5.816"/><rect x="86.794" y="40.044" transform="matrix(0.966 -0.2586 0.2586 0.966 -7.496 24.5886)" width="5.823" height="1.48"/><rect x="88.965" y="56.305" transform="matrix(0.2588 -0.9659 0.9659 0.2588 9.2895 130.5384)" width="1.48" height="5.823"/><rect x="9.555" y="37.873" transform="matrix(0.2588 -0.9659 0.9659 0.2588 -31.7639 40.1725)" width="1.48" height="5.823"/><rect x="7.383" y="58.476" transform="matrix(0.9659 -0.2588 0.2588 0.9659 -14.9754 4.6822)" width="5.823" height="1.48"/><path d="M52.042,60.346l-0.241,1.46c5.317,0.88,9.102,5.487,9.102,10.752c0,5.461-3.98,9.938-9.126,10.752l0.231,1.461  c5.612-0.885,10.376-5.782,10.376-12.213C62.383,66.502,58.005,61.332,52.042,60.346z"/><path d="M48.107,84.794l0.22-1.464c-5.167-0.778-9.23-5.24-9.23-10.773c0-5.312,3.846-9.901,9.107-10.752l-0.236-1.461  c-5.94,0.96-10.351,6.147-10.351,12.213C37.617,78.933,42.336,83.922,48.107,84.794z"/><path d="M15.214,48.044l1.462,0.228c0.788-5.041,5.167-9.176,10.766-9.176c5.41,0,9.998,3.965,10.78,9.286l1.464-0.215  c-0.883-6.007-6.065-10.551-12.244-10.551C21.069,37.617,16.107,42.328,15.214,48.044z"/><path d="M39.624,52.235l-1.456-0.264c-0.933,5.141-5.437,8.932-10.725,8.932c-5.597,0-9.977-4.133-10.766-9.176l-1.462,0.228  c0.893,5.722,5.86,10.427,12.228,10.427C33.446,62.383,38.563,58.078,39.624,52.235z"/><path d="M52.007,15.229l-0.231,1.461c5.14,0.813,9.126,5.282,9.126,10.752c0,5.255-3.774,9.871-9.102,10.752l0.241,1.46  c5.964-0.987,10.341-6.158,10.341-12.212C62.383,20.999,57.608,16.112,52.007,15.229z"/><path d="M47.968,39.655l0.236-1.461c-5.258-0.85-9.107-5.436-9.107-10.752c0-5.525,4.058-9.993,9.23-10.773l-0.22-1.464  c-5.767,0.872-10.49,5.857-10.49,12.237C37.617,33.517,42.037,38.697,47.968,39.655z"/><path d="M15.362,18.839l-0.61-1.348c-3.574,1.618-7.672-1.015-7.672-4.965c0-3.003,2.443-5.445,5.445-5.445  c3.944,0,6.572,4.084,4.979,7.646l1.351,0.604c2.031-4.538-1.316-9.731-6.329-9.731C8.707,5.6,5.6,8.707,5.6,12.525  C5.6,17.534,10.794,20.905,15.362,18.839z"/><path d="M82.496,14.726c-1.59-3.555,1.028-7.646,4.979-7.646c3.003,0,5.445,2.443,5.445,5.445c0,3.944-4.085,6.573-7.646,4.978  l-0.604,1.351c4.538,2.031,9.731-1.316,9.731-6.33c0-3.819-3.107-6.925-6.925-6.925c-5.013,0-8.361,5.192-6.329,9.731L82.496,14.726  z"/><path d="M17.466,85.193c1.666,3.529-0.932,7.727-4.941,7.727c-3.003,0-5.445-2.443-5.445-5.445c0-3.955,4.103-6.582,7.672-4.965  l0.61-1.348c-4.563-2.064-9.762,1.3-9.762,6.314c0,3.819,3.107,6.925,6.925,6.925c5.088,0,8.41-5.326,6.28-9.839L17.466,85.193z"/><path d="M84.669,81.145l0.604,1.351c3.554-1.591,7.646,1.028,7.646,4.978c0,3.003-2.443,5.445-5.445,5.445  c-4.006,0-6.608-4.196-4.941-7.727l-1.338-0.632c-2.125,4.501,1.181,9.839,6.28,9.839c3.819,0,6.925-3.107,6.925-6.925  C94.4,82.462,89.209,79.114,84.669,81.145z"/><rect x="49.26" y="55.92" width="1.48" height="3.7"/><rect x="49.26" y="40.38" width="1.48" height="3.7"/><rect x="40.38" y="49.26" width="3.7" height="1.48"/><rect x="55.92" y="49.26" width="3.7" height="1.48"/><text x="0" y="115" fill="#000000" font-size="5px" font-weight="bold" font-family="'Helvetica Neue', Helvetica, Arial-Unicode, Arial, Sans-serif">Created by H Alberto Gongora</text><text x="0" y="120" fill="#000000" font-size="5px" font-weight="bold" font-family="'Helvetica Neue', Helvetica, Arial-Unicode, Arial, Sans-serif">from the Noun Project</text></svg>