<svg xmlns="http://www.w3.org/2000/svg" width="1920" height="1080" viewBox="0 0 1920 1080">
  <defs>
    <radialGradient id="quantum-gradient" cx="50%" cy="50%" r="70%" fx="50%" fy="50%">
      <stop offset="0%" stop-color="#0c1445" />
      <stop offset="50%" stop-color="#061035" />
      <stop offset="100%" stop-color="#020824" />
    </radialGradient>
    
    <filter id="glow" x="-50%" y="-50%" width="200%" height="200%">
      <feGaussianBlur in="SourceGraphic" stdDeviation="10" />
    </filter>
  </defs>
  
  <rect width="100%" height="100%" fill="url(#quantum-gradient)" />
  
  <!-- Quantum particles and patterns -->
  <g opacity="0.4">
    <circle cx="300" cy="200" r="80" fill="#464bff" filter="url(#glow)" />
    <circle cx="1500" cy="300" r="60" fill="#7b83ff" filter="url(#glow)" />
    <circle cx="800" cy="700" r="120" fill="#373dcc" filter="url(#glow)" />
    <circle cx="1200" cy="800" r="90" fill="#5a61e6" filter="url(#glow)" />
  </g>
  
  <!-- Quantum waves -->
  <path d="M0,400 Q480,350 960,400 T1920,400" stroke="#464bff" fill="none" stroke-width="2" opacity="0.3" />
  <path d="M0,600 Q480,550 960,600 T1920,600" stroke="#7b83ff" fill="none" stroke-width="2" opacity="0.3" />
  <path d="M0,800 Q480,750 960,800 T1920,800" stroke="#6166e3" fill="none" stroke-width="2" opacity="0.3" />
</svg>
<svg xmlns="http://www.w3.org/2000/svg" width="1920" height="1080" viewBox="0 0 1920 1080">
  <defs>
    <radialGradient id="quantum-gradient" cx="50%" cy="50%" r="70%" fx="50%" fy="50%">
      <stop offset="0%" stop-color="#0c1445" />
      <stop offset="50%" stop-color="#061035" />
      <stop offset="100%" stop-color="#020824" />
    </radialGradient>
    
    <filter id="glow" x="-50%" y="-50%" width="200%" height="200%">
      <feGaussianBlur in="SourceGraphic" stdDeviation="10" />
    </filter>
  </defs>
  
  <rect width="100%" height="100%" fill="url(#quantum-gradient)" />
  
  <!-- Quantum particles and patterns -->
  <g opacity="0.4">
    <circle cx="300" cy="200" r="80" fill="#464bff" filter="url(#glow)" />
    <circle cx="1500" cy="300" r="60" fill="#7b83ff" filter="url(#glow)" />
    <circle cx="800" cy="700" r="120" fill="#373dcc" filter="url(#glow)" />
    <circle cx="1200" cy="800" r="90" fill="#5a61e6" filter="url(#glow)" />
  </g>
  
  <!-- Quantum waves -->
  <path d="M0,400 Q480,350 960,400 T1920,400" stroke="#464bff" fill="none" stroke-width="2" opacity="0.3" />
  <path d="M0,600 Q480,550 960,600 T1920,600" stroke="#7b83ff" fill="none" stroke-width="2" opacity="0.3" />
  <path d="M0,800 Q480,750 960,800 T1920,800" stroke="#6166e3" fill="none" stroke-width="2" opacity="0.3" />
</svg>
<svg xmlns="http://www.w3.org/2000/svg" width="1920" height="1080" viewBox="0 0 1920 1080">
  <defs>
    <radialGradient id="quantum-gradient" cx="50%" cy="50%" r="70%" fx="50%" fy="50%">
      <stop offset="0%" stop-color="#0c1445" />
      <stop offset="50%" stop-color="#061035" />
      <stop offset="100%" stop-color="#020824" />
    </radialGradient>
    
    <filter id="glow" x="-50%" y="-50%" width="200%" height="200%">
      <feGaussianBlur in="SourceGraphic" stdDeviation="10" />
    </filter>
  </defs>
  
  <rect width="100%" height="100%" fill="url(#quantum-gradient)" />
  
  <!-- Quantum particles and patterns -->
  <g opacity="0.4">
    <circle cx="300" cy="200" r="80" fill="#464bff" filter="url(#glow)" />
    <circle cx="1500" cy="300" r="60" fill="#7b83ff" filter="url(#glow)" />
    <circle cx="800" cy="700" r="120" fill="#373dcc" filter="url(#glow)" />
    <circle cx="1200" cy="800" r="90" fill="#5a61e6" filter="url(#glow)" />
  </g>
  
  <!-- Quantum waves -->
  <path d="M0,400 Q480,350 960,400 T1920,400" stroke="#464bff" fill="none" stroke-width="2" opacity="0.3" />
  <path d="M0,600 Q480,550 960,600 T1920,600" stroke="#7b83ff" fill="none" stroke-width="2" opacity="0.3" />
  <path d="M0,800 Q480,750 960,800 T1920,800" stroke="#6166e3" fill="none" stroke-width="2" opacity="0.3" />
</svg>
<svg xmlns="http://www.w3.org/2000/svg" width="1920" height="1080" viewBox="0 0 1920 1080">
  <defs>
    <radialGradient id="quantum-gradient" cx="50%" cy="50%" r="70%" fx="50%" fy="50%">
      <stop offset="0%" stop-color="#0c1445" />
      <stop offset="50%" stop-color="#061035" />
      <stop offset="100%" stop-color="#020824" />
    </radialGradient>
    
    <filter id="glow" x="-50%" y="-50%" width="200%" height="200%">
      <feGaussianBlur in="SourceGraphic" stdDeviation="10" />
    </filter>
  </defs>
  
  <rect width="100%" height="100%" fill="url(#quantum-gradient)" />
  
  <!-- Quantum particles and patterns -->
  <g opacity="0.4">
    <circle cx="300" cy="200" r="80" fill="#464bff" filter="url(#glow)" />
    <circle cx="1500" cy="300" r="60" fill="#7b83ff" filter="url(#glow)" />
    <circle cx="800" cy="700" r="120" fill="#373dcc" filter="url(#glow)" />
    <circle cx="1200" cy="800" r="90" fill="#5a61e6" filter="url(#glow)" />
  </g>
  
  <!-- Quantum waves -->
  <path d="M0,400 Q480,350 960,400 T1920,400" stroke="#464bff" fill="none" stroke-width="2" opacity="0.3" />
  <path d="M0,600 Q480,550 960,600 T1920,600" stroke="#7b83ff" fill="none" stroke-width="2" opacity="0.3" />
  <path d="M0,800 Q480,750 960,800 T1920,800" stroke="#6166e3" fill="none" stroke-width="2" opacity="0.3" />
</svg>
<svg xmlns="http://www.w3.org/2000/svg" viewBox="0 0 800 600" preserveAspectRatio="xMidYMid slice">
  <defs>
    <linearGradient id="gradient1" x1="0%" y1="0%" x2="100%" y2="100%">
      <stop offset="0%" style="stop-color:#6a11cb; stop-opacity:1" />
      <stop offset="100%" style="stop-color:#2575fc; stop-opacity:1" />
    </linearGradient>
    <linearGradient id="gradient2" x1="0%" y1="100%" x2="100%" y2="0%">
      <stop offset="0%" style="stop-color:#ff6a00; stop-opacity:1" />
      <stop offset="100%" style="stop-color:#ee0979; stop-opacity:1" />
    </linearGradient>
  </defs>
  <rect width="100%" height="100%" fill="url(#gradient1)" />
  <circle cx="200" cy="300" r="150" fill="url(#gradient2)" opacity="0.5" />
  <ellipse cx="600" cy="200" rx="100" ry="150" fill="url(#gradient1)" opacity="0.5" />
  <path d="M400 100 Q450 50 500 100 T600 100" stroke="#fff" stroke-width="2" fill="none" />
  <path d="M100 500 Q150 450 200 500 T300 500" stroke="#fff" stroke-width="2" fill="none" />
</svg>